<?xml version="1.0" standalone="no"?><!DOCTYPE svg PUBLIC "-//W3C//DTD SVG 1.1//EN" "http://www.w3.org/Graphics/SVG/1.1/DTD/svg11.dtd"><svg t="1634125567969" class="icon" viewBox="0 0 1024 1024" version="1.1" xmlns="http://www.w3.org/2000/svg" p-id="6540" xmlns:xlink="http://www.w3.org/1999/xlink" width="200" height="200"><defs><style type="text/css"></style></defs><path d="M459.286 913.026c-9.469 0-18.938-3.612-26.163-10.837L121.811 590.878c-14.449-14.449-14.449-37.877 0-52.326l416.74-416.74a36.969 36.969 0 0 1 28.614-10.756l291.93 19.382c18.503 1.229 33.239 15.965 34.467 34.468l19.382 291.93a36.997 36.997 0 0 1-10.755 28.614l-416.74 416.74c-7.225 7.224-16.694 10.836-26.163 10.836zM200.3 564.715L459.286 823.7l378.709-378.709-16.124-242.862-242.861-16.124-378.71 378.71z" p-id="6541"></path><path d="M683.835 446.697c-28.456 0-55.208-11.082-75.329-31.203s-31.202-46.873-31.202-75.329 11.081-55.208 31.203-75.329c41.536-41.536 109.122-41.536 150.658 0 20.121 20.121 31.202 46.873 31.202 75.329s-11.081 55.208-31.203 75.329c-20.121 20.121-46.873 31.203-75.329 31.203z m0-139.048c-8.332 0-16.661 3.17-23.003 9.513-6.144 6.145-9.528 14.313-9.528 23.003s3.384 16.858 9.528 23.003c6.145 6.145 14.314 9.529 23.003 9.529s16.858-3.385 23.002-9.528l0.001-0.001c6.144-6.145 9.528-14.313 9.528-23.003s-3.384-16.858-9.528-23.003c-6.341-6.341-14.673-9.513-23.003-9.513z" p-id="6542"></path></svg>